/* XPM */
static char *result[] = {
/* columns rows colors chars-per-pixel */
"32 32 143 2 ",
"   c #715336",
".  c #7C5B3B",
"X  c #71685C",
"o  c #635E6C",
"O  c #6B6572",
"+  c #76757C",
"@  c #78767F",
"#  c #7C7C7C",
"$  c #906639",
"%  c #8E6A49",
"&  c #9B734D",
"*  c #816E5C",
"=  c #88745F",
"-  c #917255",
";  c #9F7752",
":  c #98775D",
">  c #AC7C4C",
",  c #AB7D52",
"<  c #A47E5B",
"1  c #887060",
"2  c #8C7964",
"3  c #9A7F62",
"4  c #917D6C",
"5  c #BC8549",
"6  c #AE8259",
"7  c #BE8A55",
"8  c #B2875B",
"9  c #BA8C5D",
"0  c #A58464",
"q  c #B78C67",
"w  c #BB8D63",
"e  c #BB8F6A",
"r  c #BE9067",
"t  c #BF9168",
"y  c #AB8C71",
"u  c #C18B55",
"i  c #CF965D",
"p  c #D69856",
"a  c #DB9A54",
"s  c #C49366",
"d  c #C4966D",
"f  c #C29671",
"g  c #EBB078",
"h  c #777283",
"j  c #7E7C83",
"k  c #7D7889",
"l  c #827D8F",
"z  c #887F8B",
"x  c #838484",
"c  c #84848A",
"v  c #878989",
"b  c #8E8C8B",
"n  c #8C879B",
"m  c #929098",
"M  c #9E9999",
"N  c #AF9B87",
"B  c #AE998D",
"V  c #A19094",
"C  c #A4959D",
"Z  c #ADA39A",
"A  c #928DA2",
"S  c #9590A3",
"D  c #9D96A0",
"F  c #9B98A2",
"G  c #9791A9",
"H  c #9A95AA",
"J  c #9E9AAF",
"K  c #9E9AB1",
"L  c #A19CAC",
"P  c #A39DB5",
"I  c #A49FB8",
"U  c #A3A2A1",
"Y  c #A8A6A5",
"T  c #ABA8A6",
"R  c #A3A1A9",
"E  c #A9A6AF",
"W  c #AEACAD",
"Q  c #A6A2B3",
"!  c #ADA9B6",
"~  c #A6A1B9",
"^  c #AAA4BD",
"/  c #AEA9BD",
"(  c #B3B2B4",
")  c #BBB7B4",
"_  c #B5B3BE",
"`  c #B8B6BD",
"'  c #BBBABB",
"]  c #C4A58A",
"[  c #ECB484",
"{  c #F5B982",
"}  c #ABA5C0",
"|  c #AEA8C3",
" . c #B4AFC7",
".. c #B3AECA",
"X. c #B6B2C4",
"o. c #B8B5C1",
"O. c #BCBAC4",
"+. c #B6B1CD",
"@. c #B8B4C8",
"#. c #BEBACC",
"$. c #BBB5D3",
"%. c #BEB9D3",
"&. c #C1BECC",
"*. c #C3BED6",
"=. c #C5BFDA",
"-. c #C3C2C5",
";. c #C5C3CB",
":. c #C8C7CD",
">. c #CCCCCB",
",. c #D7CDC3",
"<. c #DFD6CC",
"1. c #C5C2D1",
"2. c #C9C5D5",
"3. c #CECCD3",
"4. c #C6C1DB",
"5. c #C9C5DB",
"6. c #CFCBDD",
"7. c #D3CFD4",
"8. c #D1CDDF",
"9. c #D2D1D4",
"0. c #D5D3DB",
"q. c #D8D7DC",
"w. c #DCDBDB",
"e. c #CDC9E0",
"r. c #D2CEE1",
"t. c #D4D1E3",
"y. c #DAD7E6",
"u. c #DDDBE4",
"i. c #DDDAE9",
"p. c #E0DFE3",
"a. c #E1DFEB",
"s. c #E3E2E3",
"d. c #E5E3ED",
"f. c #EAE9EC",
"g. c #E7E5F0",
"h. c #E9E7F1",
"j. c #ECEBF3",
"k. c #F0EFF5",
"l. c #F3F2F5",
"z. c #F5F4F9",
"x. c #F8F7FB",
"c. c #FEFEFE",
"v. c None",
/* pixels */
"v.v.v.v.v.v.v.v.v.v.v.v.v.v.v.v.v.v.v.v.v.v.v.v.v.v.v.v.v.v.v.v.",
"v.v.v.v.v.v.v.v.v.v.v.v.v.v.v.v.v.v.v.v.v.v.v.v.v.v.v.v.v.v.v.v.",
"v.v.v.v.v.v.v.v.v.v.v.v.v.v.v.v.v.v.v.v.v.v.v.v.v.v.v.v.v.v.v.v.",
"v.v.v.v.v.v.v.v.v.v.v.v.v.v.v.v.v.v.v.v.v.v.v.v.v.v.v.v.v.v.v.v.",
"v.v.v.v.v.v.v.v.v.v.v.v.v.v.v.v.W >.w.s.s.w.C v.v.v.v.v.v.v.v.v.",
"v.v.v.v.v.v.v.v.v.v.v.v.v.v.W f.c.c.c.c.c.c.l.( v.v.v.v.v.v.v.v.",
"v.v.v.v.v.v.v.v.v.v.v.v.v.>.x.c.c.c.c.c.c.c.k.x.>.v.v.v.v.v.v.v.",
"v.v.v.v.v.v.v.v.v.v.v.v.w.c.c.c.c.c.c.c.c.d.g.c.c.' v.v.v.v.v.v.",
"v.v.v.v.v.v.v.v.v.v.v.s.c.c.c.c.c.c.c.c.z.#.d.c.x.-.v.v.v.v.v.v.",
"v.v.v.v.v.v.v.v.v.( f.c.c.c.c.c.c.c.c.z.q.X.i.c.j.%.k v.v.v.v.v.",
"v.v.v.v.v.v.v.v.9.h.c.z.l.c.x.l.j.c.c.h.#.^ r.c.y.$.1.v.v.v.v.v.",
"v.v.v.v.v.v.T p.h.z.h.d.c.c.j.j.c.c.9.y.P I e.z.X...%.v.v.v.v.v.",
"v.v.v.v.v.v.s.j.x.d.h.c.c.c.z.W -.d.o.2.G P =.4.P $...v.v.v.v.v.",
"v.v.v.v.v.9.f.c.h.g.c.c.z.l.h.w.F #.~ $.K K ~ I +.e.+.v.v.v.v.v.",
"v.v.v.v.W s.q.c.h.x.c.c.y.t.z.c.s.J A $.| A | $.=.l.! v.v.v.v.v.",
"v.v.v.v.s.` 0.c.x.c.c.c.#.r.c.c.c.s.( Q A n +.%.i.c.R v.v.v.v.v.",
"v.v.v.>.k.! :.c.c.c.x.c.X.y.c.c.c.y.z.l.w.:._ o.l.c.Y v.M ] r v.",
"v.v.v.-.r.P ( w.z.c.j.x.#.e.y.a.c.3.s.c.c.j.h.s.>.c.( Z f.<.d v.",
"v.v.v.( 3.-.O.-.>.7.j.d.:.~ 4.d.h.&.6.z.t.$.e.z.w.s.7.;.d.9.s v.",
"v.v.b &.O.j.3.D B L 1.4.@.H } / H H %.4.} I 2.u.;.9.q.Q 3.%.f w ",
"v.v.7.s.Q X.u.! q t z ^ ^ k + K ..K H G l A ~ X.P q.&.P P C i 7 ",
"v.v l.x.&.O.0.;.: u   v.v.v.` 4.$.| } J E | ~ +.Q 5./ P M 8 5 . ",
"v.Z f.l.&.s.0.X.< p $ v.v.v.m ~ ~ G n 9.u.;.1.H | ^ A c b = v.v.",
"v.T 0.:._ h.0.H > a 2 v v v x j j # -.c.d.4.K ~ P j x v.v.v.v.v.",
". Z :.E 3.2.6.V 5 3 x v v v x j x ' z.z.a.~ + c + v.v.v.v.v.v.v.",
"v.v.L 2.&.~ ~ 1 X v v v 4 4 y 0 N ,.1.^ S + v.v.v.v.v.v.v.v.v.v.",
"v.v.v.v.o h O v.v.v.v.* = e [ { g 9 x l v.v.v.v.v.v.v.v.v.v.v.v.",
"v.v.v.v.v.v.v.v.v.v.v.% ; & 6 s , v.v.v.v.v.v.v.v.v.v.v.v.v.v.v.",
"v.v.v.v.v.v.v.v.v.v.v.v.v.v.v.v.v.v.v.v.v.v.v.v.v.v.v.v.v.v.v.v.",
"v.v.v.v.v.v.v.v.v.v.v.v.v.v.v.v.v.v.v.v.v.v.v.v.v.v.v.v.v.v.v.v.",
"v.v.v.v.v.v.v.v.v.v.v.v.v.v.v.v.v.v.v.v.v.v.v.v.v.v.v.v.v.v.v.v.",
"v.v.v.v.v.v.v.v.v.v.v.v.v.v.v.v.v.v.v.v.v.v.v.v.v.v.v.v.v.v.v.v."
};
