/* XPM */
static char *result[] = {
/* columns rows colors chars-per-pixel */
"32 32 256 2 ",
"   c black",
".  c #010101",
"X  c #020202",
"o  c gray1",
"O  c #040404",
"+  c gray2",
"@  c #060606",
"#  c #070707",
"$  c gray3",
"%  c #090909",
"&  c gray4",
"*  c #0B0B0B",
"=  c #0C0C0C",
"-  c gray5",
";  c #0E0E0E",
":  c gray6",
">  c #101010",
",  c #111111",
"<  c gray7",
"1  c #131313",
"2  c gray8",
"3  c #151515",
"4  c #161616",
"5  c gray9",
"6  c #181818",
"7  c #191919",
"8  c gray10",
"9  c #1B1B1B",
"0  c gray11",
"q  c #1D1D1D",
"w  c #1E1E1E",
"e  c gray12",
"r  c #202020",
"t  c gray13",
"y  c #222222",
"u  c #232323",
"i  c gray14",
"p  c #252525",
"a  c gray15",
"s  c #272727",
"d  c #282828",
"f  c gray16",
"g  c #2A2A2A",
"h  c gray17",
"j  c #2C2C2C",
"k  c #2D2D2D",
"l  c gray18",
"z  c #2F2F2F",
"x  c gray19",
"c  c #313131",
"v  c #323232",
"b  c gray20",
"n  c #343434",
"m  c #353535",
"M  c gray21",
"N  c #373737",
"B  c gray22",
"V  c #393939",
"C  c #3A3A3A",
"Z  c gray23",
"A  c #3C3C3C",
"S  c gray24",
"D  c #3E3E3E",
"F  c #3F3F3F",
"G  c gray25",
"H  c #414141",
"J  c gray26",
"K  c #434343",
"L  c #444444",
"P  c gray27",
"I  c #464646",
"U  c gray28",
"Y  c #484848",
"T  c #494949",
"R  c gray29",
"E  c #4B4B4B",
"W  c #4C4C4C",
"Q  c gray30",
"!  c #4E4E4E",
"~  c gray31",
"^  c #505050",
"/  c #515151",
"(  c gray32",
")  c #535353",
"_  c gray33",
"`  c #555555",
"'  c #565656",
"]  c gray34",
"[  c #585858",
"{  c gray35",
"}  c #5A5A5A",
"|  c #5B5B5B",
" . c gray36",
".. c #5D5D5D",
"X. c gray37",
"o. c #5F5F5F",
"O. c #606060",
"+. c gray38",
"@. c #626262",
"#. c gray39",
"$. c #646464",
"%. c #656565",
"&. c gray40",
"*. c #676767",
"=. c #686868",
"-. c DimGray",
";. c #6A6A6A",
":. c gray42",
">. c #6C6C6C",
",. c #6D6D6D",
"<. c gray43",
"1. c #6F6F6F",
"2. c gray44",
"3. c #717171",
"4. c #727272",
"5. c gray45",
"6. c #747474",
"7. c gray46",
"8. c #767676",
"9. c #777777",
"0. c gray47",
"q. c #797979",
"w. c gray48",
"e. c #7B7B7B",
"r. c #7C7C7C",
"t. c gray49",
"y. c #7E7E7E",
"u. c gray50",
"i. c #808080",
"p. c #818181",
"a. c gray51",
"s. c #838383",
"d. c #848484",
"f. c gray52",
"g. c #868686",
"h. c gray53",
"j. c #888888",
"k. c #898989",
"l. c gray54",
"z. c #8B8B8B",
"x. c gray55",
"c. c #8D8D8D",
"v. c #8E8E8E",
"b. c gray56",
"n. c #909090",
"m. c gray57",
"M. c #929292",
"N. c #939393",
"B. c gray58",
"V. c #959595",
"C. c gray59",
"Z. c #979797",
"A. c #989898",
"S. c gray60",
"D. c #9A9A9A",
"F. c #9B9B9B",
"G. c gray61",
"H. c #9D9D9D",
"J. c gray62",
"K. c #9F9F9F",
"L. c #A0A0A0",
"P. c gray63",
"I. c #A2A2A2",
"U. c gray64",
"Y. c #A4A4A4",
"T. c #A5A5A5",
"R. c gray65",
"E. c #A7A7A7",
"W. c gray66",
"Q. c #A9A9A9",
"!. c #AAAAAA",
"~. c gray67",
"^. c #ACACAC",
"/. c gray68",
"(. c #AEAEAE",
"). c #AFAFAF",
"_. c gray69",
"`. c #B1B1B1",
"'. c #B2B2B2",
"]. c gray70",
"[. c #B4B4B4",
"{. c gray71",
"}. c #B6B6B6",
"|. c #B7B7B7",
" X c gray72",
".X c #B9B9B9",
"XX c gray73",
"oX c #BBBBBB",
"OX c #BCBCBC",
"+X c gray74",
"@X c gray",
"#X c gray75",
"$X c #C0C0C0",
"%X c #C1C1C1",
"&X c gray76",
"*X c #C3C3C3",
"=X c gray77",
"-X c #C5C5C5",
";X c #C6C6C6",
":X c gray78",
">X c #C8C8C8",
",X c gray79",
"<X c #CACACA",
"1X c #CBCBCB",
"2X c gray80",
"3X c #CDCDCD",
"4X c #CECECE",
"5X c gray81",
"6X c #D0D0D0",
"7X c gray82",
"8X c #D2D2D2",
"9X c LightGray",
"0X c gray83",
"qX c #D5D5D5",
"wX c gray84",
"eX c #D7D7D7",
"rX c #D8D8D8",
"tX c gray85",
"yX c #DADADA",
"uX c gray86",
"iX c gainsboro",
"pX c #DDDDDD",
"aX c gray87",
"sX c #DFDFDF",
"dX c gray88",
"fX c #E1E1E1",
"gX c #E2E2E2",
"hX c gray89",
"jX c #E4E4E4",
"kX c gray90",
"lX c #E6E6E6",
"zX c #E7E7E7",
"xX c gray91",
"cX c #E9E9E9",
"vX c #EAEAEA",
"bX c gray92",
"nX c #ECECEC",
"mX c gray93",
"MX c #EEEEEE",
"NX c #EFEFEF",
"BX c gray94",
"VX c #F1F1F1",
"CX c gray95",
"ZX c #F3F3F3",
"AX c #F4F4F4",
"SX c gray96",
"DX c #F6F6F6",
"FX c gray97",
"GX c #F8F8F8",
"HX c #F9F9F9",
"JX c gray98",
"KX c #FBFBFB",
"LX c gray99",
"PX c #FDFDFD",
"IX c #FEFEFE",
"UX c white",
/* pixels */
"I.K.G.G.K.T.U.E.U.G.G.Z.Z.D.T.T./.(.Y.T.J.H.H.W.!./.'.!.~.W.R.W.",
"/.W.U.T.Y.E.Y.~.Q.Q.W.K.L.H.H.H.!.(.^.(.U.P.P.Y.U.W.`.^.^.R.U.R.",
"Q.W.E.R.T.^.~.(.W.R.W.E.Q.P.P.P.P.L.J.I.L.I.L.E.Q.W.!.L.K.H.G.H.",
"E.U.L.I.J.J.F.Y.U.I.P.K.T.U.Y.L.P.U.Y.T.P.E.E.Q.W.T.~.W.Q.Y.P.Y.",
"].'.].`.P.I.L.L.G.D.G.G.J.S.G.F.F.F.G.I.P.U.L.R.Q.W.Q.P.U.I.P.P.",
"Q.T.!.(./.(.Y.U.U.Y.U.R.(.^.^.R.T.W.Q.!.T.~.~.^.!.R.~.Q.!.Y.G.J.",
"I.P.I.P.Y./.!.~.E./.`._.'.R.Y.U.U.I.R.).(.).!./._.(.).E.^.^.!.!.",
"!.T.R.Q.W.Q.Y.~.~./.~.E.^.Q.!.Y.I.Y.T.R.I.~.!.~.!.U.E.T.R.P.H.L.",
"(././.^.K.L.K.P.K.^.).(.).W./.^.^.!.T.~.Q.~.E.!./.~.^.L.J.H.H.J.",
"I.J.L.P.J.J.H.W.W.~.!.E.^.!.~.W./._.(._.R.W.E.W.E.L.U.K.J.G.T.Q.",
"T.U.L.K.I.Q.Q./.E.T.E.R.W.K.J.H.K.K.Y.^.W.Q.R.(.`.(.).U.P.P.Y.T.",
"(.Q.~.(.(.'.E.Y.I.P.P.G.J.D.D.S.R.Q.!./.W././._.).U.Y.K.J.F.J.L.",
"(.^.).).U.Y.J.H.G.W.~.W.!.J.S.S.L.P.Y.~.W.!.W.^.(.E.E.U.W.E.W.Q.",
"(.Q.W.Q.P.P.L.Q.Q.`.`.E.Q.P.J.D.Z.A.F.K.P./.~.(.(.~.).^.).^./.).",
"T.I.P.P.U.E.R.^.!.!.~.U.Y.H.G.D.Z.Z.A.G.J.W.R.(.).~.(.W.Q.R.W.!.",
"R.I.H.J.J.U.U.~.W.Q.Q.I.I.F.D.S.J.K.K.U.H.G.F.I.Y.Q.).Q.!.R.U.Y.",
"W.U.H.J.F.G.H.E.R.^.^.I.I.L.U.I.W.Q.!.(.R.T.U.Y.T.~.]./.(.Q.T.E.",
"U.P.Y.Y.L.I.J.L.K.E.Q.E.Q.T.!.Q./././.[./.!.R.Q.~./.`.W.!.W.!.~.",
").~.).`.).'.~.(.~.Q.W.U.W.T.E.T.^.)./._.U.J.H.K.K.Y.~.T.U.K.I.T.",
"].'.[.].).{.`._.Q.U.T.E.!.Y.Q.E.R.T.I.W.T.E.U.W.~./._.I.H.G.G.H.",
"Q.R./.`.`.[.R.I.P.L.K.Y././.`.!.Y.R.U.Y.H.L.L.U.U.Q.`.(.).!.W.~.",
"U.I.Y.Y.R.(.~.~.T.K.L.P.I.U._.(./.~.P.Y.U.Y.I.^._.`.].!.(.^.W.Q.",
"H.D.Y.W.Q.!.P.P.P.K.J.L.E.E.!.Y.L.I.K.L.F.P.P.I.P.W.'._.'.Q.S.F.",
"G.F.H.G.P.!.E.E.P.F.H.H.J.K./././.^.P.Y.I.U.L.U.R.E.Q.T.(./.!.!.",
"I.J.P.U.U.Y.D.A.A.Z.C.C.F.F.J.G.E.~.W.Q.L.I.I.U.I.E._.).`.Q.P.I.",
"'.`.'._.U.T.U.U.K.L.U.U.Y.U.).).`._.!.)././.W.~.(.).'.Q.^.!.W.W.",
"E.Y.Q.~.W.W.Y.^.~.^.!.E././._.^._.].`.].R.Y.U.Y.U.!.]._.`.!.L.I.",
"W.E.Q.W.L.U.P.Y.P.U.T.Y.R.Y.^.~./.^.E.~.E.R.I.R.W.!./.T.E.T.I.I.",
"^.W.!./.Q.!.T.!.Q.!.Q.K.P.P.Y.I.~.(.~./.Q._.).`._.^.`.(.).W.G.J.",
"E.T.R.E.I.T.I.Y.U.~./.W.Q.U.R.R.~.~.W./.~.(.!.Q.!.E.!.Y.E.U.H.J.",
"`.!.J.J.F.G.F.P.L.T.R.T.!.R.W.Y.J.J.G.K.I.(.^.!.!.T.Q.T.R.U.W.!.",
"'.~.L.L.F.G.D.L.J.H.H.H.P.I.!.R.L.L.H.K.I./.!.E.E.I.T.R.(.^.).'."
};
