/* XPM */
static char *result[] = {
/* columns rows colors chars-per-pixel */
"32 32 249 2 ",
"   c black",
".  c #030201",
"X  c #050301",
"o  c #050401",
"O  c #060401",
"+  c #070501",
"@  c #010305",
"#  c #020405",
"$  c #030506",
"%  c #050606",
"&  c #050607",
"*  c #080602",
"=  c #090602",
"-  c #0B0702",
";  c #0C0802",
":  c #0E0903",
">  c #100B03",
",  c #120C04",
"<  c #130D04",
"1  c #140E04",
"2  c #150E04",
"3  c #171004",
"4  c #1A1105",
"5  c #1A1205",
"6  c #1B1205",
"7  c #1C1306",
"8  c #1D1406",
"9  c #211607",
"0  c #211707",
"q  c #231707",
"w  c #30200A",
"e  c #33220A",
"r  c #36240B",
"t  c #38260B",
"y  c #3B280C",
"u  c #3F2A0C",
"i  c #3F2B0D",
"p  c #372811",
"a  c #20272C",
"s  c #21272C",
"d  c #23282C",
"f  c #23292C",
"g  c #24292D",
"h  c #242B31",
"j  c #252C32",
"k  c #262C32",
"l  c #262D32",
"z  c #272D32",
"x  c #272E32",
"c  c #282E32",
"v  c #282E33",
"b  c #282F33",
"n  c #292F33",
"m  c #2B3134",
"M  c #2D3234",
"N  c #2D3335",
"B  c #2E3335",
"V  c #2F3435",
"C  c #303536",
"Z  c #313536",
"A  c #323636",
"S  c #333737",
"D  c #353837",
"F  c #373A38",
"G  c #383B39",
"H  c #393C39",
"J  c #3A3D39",
"K  c #3A3D3A",
"L  c #3D3F3B",
"P  c #412C0D",
"I  c #422C0D",
"U  c #432D0D",
"Y  c #442D0D",
"T  c #472F0E",
"R  c #48300E",
"E  c #453114",
"W  c #533811",
"Q  c #543911",
"!  c #553911",
"~  c #583B12",
"^  c #5D3F13",
"/  c #5E3F13",
"(  c #3E403B",
")  c #3F403B",
"_  c #3F413B",
"`  c #604113",
"'  c #634214",
"]  c #654414",
"[  c #664414",
"{  c #664514",
"}  c #694715",
"|  c #6E4A16",
" . c #704C16",
".. c #74521E",
"X. c #785118",
"o. c #7A5218",
"O. c #7A5318",
"+. c #40413C",
"@. c #41423C",
"#. c #42433C",
"$. c #44453D",
"%. c #45453D",
"&. c #46463E",
"*. c #514C3C",
"=. c #514F42",
"-. c #535143",
";. c #565344",
":. c #5C5541",
">. c #585444",
",. c #5A5645",
"<. c #5D5947",
"1. c #5E5947",
"2. c #5F5A47",
"3. c #605B48",
"4. c #615B48",
"5. c #625D49",
"6. c #655F49",
"7. c #655F4A",
"8. c #6E664D",
"9. c #6F674D",
"0. c #70674D",
"q. c #736A4F",
"w. c #776D50",
"e. c #786E51",
"r. c #7A6F51",
"t. c #7B7052",
"y. c #7E7353",
"u. c #7F7353",
"i. c #80571A",
"p. c #84591A",
"a. c #8A5D1C",
"s. c #8C5F1C",
"d. c #8D5F1C",
"f. c #8E601C",
"g. c #91621D",
"h. c #92621D",
"j. c #9A681F",
"k. c #9C691F",
"l. c #9F6B20",
"z. c #A36E21",
"x. c #A56F21",
"c. c #A87122",
"v. c #AF7623",
"b. c #AB782B",
"n. c #B47924",
"m. c #B57A24",
"M. c #B87C25",
"N. c #BB7E25",
"B. c #84754F",
"V. c #817554",
"C. c #867956",
"Z. c #877A56",
"A. c #8E7F59",
"S. c #BD8026",
"D. c #C48427",
"F. c #C78628",
"G. c #C98728",
"H. c #C98828",
"J. c #D38E2A",
"K. c #D7902A",
"L. c #D6902B",
"P. c #DA932C",
"I. c #DC942C",
"U. c #DE952C",
"Y. c #E3992D",
"T. c #E59A2E",
"R. c #E69B2E",
"E. c #EDA02F",
"W. c #EFA739",
"Q. c #F0A230",
"!. c #F1A330",
"~. c #F2A330",
"^. c #F3A431",
"/. c #F5A531",
"(. c #F6A631",
"). c #FCAA32",
"_. c #FEAB33",
"`. c #FFAC32",
"'. c #FFAC33",
"]. c #FFAD33",
"[. c #FFAE34",
"{. c #FFAF34",
"}. c #F6AB3B",
"|. c #FFB034",
" X c #FFB235",
".X c #FFB335",
"XX c #FFB23D",
"oX c #FFB53E",
"OX c #FFB73E",
"+X c #8F8059",
"@X c #908059",
"#X c #95855B",
"$X c #98875D",
"%X c #9D8B5E",
"&X c #9E8C5F",
"*X c #A08D5F",
"=X c #9F8D60",
"-X c #A08E60",
";X c #A18E60",
":X c #A39060",
">X c #A39061",
",X c #AA9663",
"<X c #AC9764",
"1X c #AF9965",
"2X c #B69B60",
"3X c #B19B66",
"4X c #B39D67",
"5X c #B69F68",
"6X c #BCA46A",
"7X c #C0A76B",
"8X c #C1A86C",
"9X c #C3A96C",
"0X c #C6AC6E",
"qX c #C8AD6E",
"wX c #CDB170",
"eX c #CFB371",
"rX c #D0B471",
"tX c #D2B572",
"yX c #DABC75",
"uX c #DCBD76",
"iX c #DDBF77",
"pX c #DFC077",
"aX c #E2C278",
"sX c #E3C379",
"dX c #E7C67A",
"fX c #E9C87B",
"gX c #EAC87B",
"hX c #F2C974",
"jX c #F7CD77",
"kX c #F0CD7D",
"lX c #F2CF7E",
"zX c #F3D07F",
"xX c #F4D07F",
"cX c #F5D17F",
"vX c #FFD57A",
"bX c #FFD77B",
"nX c #FFD97C",
"mX c #F7D380",
"MX c #FCD782",
"NX c #FED883",
"BX c #FFD983",
"VX c #FFDA83",
"CX c #FFDA84",
"ZX c #FFDB84",
"AX c #FFDC84",
"SX c #FFDD85",
"DX c #FFDF86",
"FX c #FFE086",
"GX c None",
/* pixels */
"GXGXGXGXGXGXGXGXGXGXGXGXGXGX  & f n GXGXGXGXGXGXGXGXGXGXGXGXGXGX",
"GXGXGXGXGXGXGXGXGXGXGX        % g n n n n GXGXGXGXGXGXGXGXGXGXGX",
"GXGXGXGXGXGXGX                % g n n n n n n n n GXGXGXGXGXGXGX",
"GXGXGX                        % g n n n n n n n n n n n n GXGXGX",
"                              % g n n n n n n n n n n n n n n n ",
"                              # s v n n n n n n n n n n n n n n ",
"                          O 3 p *.L B z j l c n n n n n n n n n ",
"                + 5 t / a.n.K.W.hXiX7X%Xe.>.( V x j l x n n n n ",
"      * 7 y ' f.M.P.!._.{.{.].XXvXZXAXAXNXzXpX9X*Xt.,.@.C v j k ",
"P ] h.N.I.^.'.{.{.[.].[.{.{.`.}.jXCXAXAXZXCXZXAXAXBXcXaX0X>Xy.2.",
"(.'.{.{.[.[.[.{.[.).E.L.m.f.[ E :.u.;X8XuXkXMXZXAXZXZXZXAXAXBXmX",
"[.{.{.'./.Y.F.z.O.W w 2 o     $ d j l N K =.8.@X3XeXdXmXBXAXAXZX",
"J.m.f.] i 9 ;       - 5 ; < T b.2X7.H S _ A z h n S $.1.y.-X8XyX",
"< X     = , > 1 ^ c.G.F.! i.p.OXnX$X#X0.rXtX5Xw.J F G Z z z M H ",
", 4 q j.H.x.{  .v. X|.T.o.S.d.oXbX=XqX+XfXSXDX6XZ.y.4XtX,X&.) G ",
"} s.` Q..XD.g.l.v.].~.H.I ~ Y ..B.5.q.3.tXxXVX6X1X:XwXFXlXr.&XV.",
"X.v.| U.R.k.u U R Q r 8 .     @ a v v m #.;.9.6.4.<.<XgXsXC.6XA.",
"I w 6 e 0 :                   % g n n n x l j l v b D %.-.+.=.3.",
"                              % g n n n n n n n n n v x l v z n ",
"                              % g n n n n n n n n n n n n n n n ",
"                              % g n n n n n n n n n n n n n n n ",
"                              % g n n n n n n n n n n n n n n n ",
"                              % g n n n n n n n n n n n n n n n ",
"                              % g n n n n n n n n n n n n n n n ",
"                              % g n n n n n n n n n n n n n n n ",
"                              % g n n n n n n n n n n n n n n n ",
"                              % g n n n n n n n n n n n n n n n ",
"                              % g n n n n n n n n n n n n n n n ",
"                              % g n n n n n n n n n n n n n n n ",
"                              % g n n n n n n n n n n n n n n n ",
"GXGXGX                        % g n n n n n n n n n n n n n GXGX",
"GXGXGXGXGXGXGXGXGXGXGX        % g n n n n GXGXGXGXGXGXGXGXGXGXGX"
};
