/* XPM */
static char *result[] = {
/* columns rows colors chars-per-pixel */
"32 32 103 2 ",
"   c #171819",
".  c #1A1919",
"X  c #191A1A",
"o  c gray10",
"O  c #25201D",
"+  c gray24",
"@  c #4C3426",
"#  c #70472F",
"$  c #CD7846",
"%  c #D77A41",
"&  c #D67B43",
"*  c #D77C43",
"=  c #D57B44",
"-  c #D67E47",
";  c #F38C4F",
":  c #E78A53",
">  c #F38C50",
",  c #F78F51",
"<  c #FF9151",
"1  c #FF9152",
"2  c #FF9253",
"3  c #FF9254",
"4  c #FE975B",
"5  c #FF975B",
"6  c #FE975C",
"7  c #DB9873",
"8  c #EB9867",
"9  c #F79B66",
"0  c #F89860",
"q  c #FC9A62",
"w  c #F99A64",
"e  c #F99D67",
"r  c #F69F6E",
"t  c #E7A077",
"y  c #F5A376",
"u  c #DFB59D",
"i  c #F9AD81",
"p  c #F8B58E",
"a  c #DEBFB0",
"s  c #EABBA3",
"d  c #EFBCA1",
"f  c #DAC3BA",
"g  c #E2C7BA",
"h  c #E0C9BF",
"j  c #D6CACA",
"k  c #D0D3DD",
"l  c #F0D9CC",
"z  c #E7DCD8",
"x  c #EEE1D9",
"c  c #CFD4E0",
"v  c #CFD4E1",
"b  c #CFD5E1",
"n  c #CED5E2",
"m  c #D0D6E2",
"M  c #D1D6E3",
"N  c #D3D8E4",
"B  c #D3D8E5",
"V  c #D5DAE5",
"C  c #D9DBE5",
"Z  c #D6DBE8",
"A  c #D7DBE8",
"S  c #D7DCE8",
"D  c #D7DCE9",
"F  c #D9DEE9",
"G  c #DADEE9",
"H  c #D8DDEA",
"J  c #DDE0E9",
"K  c #DEE1E9",
"L  c #DFE2E8",
"P  c #DFE2EA",
"I  c #DCE0EC",
"U  c #DDE1EC",
"Y  c #DFE2EC",
"T  c #E2E0E4",
"R  c #E8E5E5",
"E  c #E0E3EA",
"W  c #E0E3EB",
"Q  c #E1E4EB",
"!  c #E3E5EA",
"~  c #E3E6EB",
"^  c #E6E7EA",
"/  c #E7E7EA",
"(  c #E0E3EC",
")  c #E3E5EC",
"_  c #E4E6EC",
"`  c #E5E7EC",
"'  c #E8E7E8",
"]  c #E6E8EB",
"[  c #E6E8EC",
"{  c #E7E8EC",
"}  c #E8E9EB",
"|  c #EAEAEB",
" . c gray92",
".. c #E8E9EC",
"X. c #EAEAEC",
"o. c #EAEBEC",
"O. c #EBEBEC",
"+. c #EBEBED",
"@. c #EBECED",
"#. c #ECECEC",
"$. c #ECECED",
"%. c #ECEDEE",
"&. c None",
/* pixels */
"&.&.&.&.&.&.&.&.&.&.&.&.&.&.&.&.&.&.&.&.&.&.&.&.&.&.&.&.&.&.&.&.",
"&.&.&.&.&.&.&.+ &.&.&.&.&.&.&.&.&.&.&.&.&.&.&.&.&.&.&.&.&.&.&.&.",
"&.&.&.&.&.&.&.&.&.&.&.&.&.&.&.&.&.&.&.&.&.&.&.&.&.&.&.&.&.&.&.&.",
"&.&.&.&.&.&.&.&.&.&.&.&.&.&.&.  X o &.&.&.&.&.&.&.&.&.&.&.&.&.&.",
"&.&.&.&.&.&.&.&.&.&.& &.&.&.&.@ O o &.&.&.&.&.&.&.&.&.&.&.&.&.&.",
"&.&.&.&.&.&.&.&.&.&.& & &.&.&.$ # . &.&.&.&.&.&.&.&.&.&.&.&.&.&.",
"&.&.&.&.&.&.&.&.&.&.&.& & &.&.&.&.&.&.&.&.&.&.&.&.&.&.&.&.&.&.&.",
"&.&.&.&.&.&.&.&.&.&.&.&.* & % &.t 7 &.&.&.&.&.&.&.&.&.&.&.&.&.&.",
"&.&.&.&.&.&.&.&.&.&.&.&.&.= - u 9 : f &.&.&.&.&.&.&.&.&.&.&.&.&.",
"&.&.&.&.&.&.&.&.&.&.&.&.&.> 8 h 0 ; a &.&.&.&.&.&.&.&.&.&.&.&.&.",
"&.&.&.&.&.&.&.&.&.&.&.&.&.&.5 s r , g &.&.&.&.&.&.&.&.&.&.&.&.&.",
"&.&.&.&.&.&.&.&.&.&.&.&.&.&.i q 6 e z &.&.&.&.&.&.&.&.&.&.&.&.&.",
"&.&.&.&.&.&.&.&.&.&.&.&.&.&.R d 4 p | U &.&.&.&.&.&.&.&.&.&.&.&.",
"&.&.&.&.&.&.&.&.&.&.&.&.&.&.&.' l x +.Y &.&.&.&.&.&.&.&.&.&.&.&.",
"&.&.&.&.&.&.&.&.&.&.&.&.&.&.&.#.%.@.O.( &.&.&.&.&.&.&.&.&.&.&.&.",
"&.&.&.&.&.&.&.&.&.&.&.&.&.&.&.#.#.o.` U &.&.&.&.&.&.&.&.&.&.&.&.",
"&.&.&.&.&.&.&.&.&.&.&.&.&.&.L K ~ { [ I &.&.&.&.&.&.&.&.&.&.&.&.",
"&.&.&.&.&.&.&.&.&.&.&.&.&.&.X.E A Z D H &.&.&.&.&.&.&.&.&.&.&.&.",
"&.&.&.&.&.&.&.&.&.&.&.&.&.&.#.#...P S M &.&.&.&.&.&.&.&.&.&.&.&.",
"&.&.&.&.&.&.&.&.&.&.&.&.&.&.#.#.#.#.) N &.&.&.&.&.&.&.&.&.&.&.&.",
"&.&.&.&.&.&.&.&.&.&.&.&.&.&.#.] O.#._ B &.&.&.&.&.&.&.&.&.&.&.&.",
"&.&.&.&.&.&.&.&.&.&.&.&.&.#.#.! O.#.Q M &.&.&.&.&.&.&.&.&.&.&.&.",
"&.&.&.&.&.&.&.&.&.&.&.&.&.#.O.! O.#.J v &.&.&.&.&.&.&.&.&.&.&.&.",
"&.&.&.&.&.&.&.&.&.&.&.&.&.#.X.! #.O.G c &.&.&.&.&.&.&.&.&.&.&.&.",
"&.&.&.&.&.&.&.&.&.&.&.&.&.#.} ^ #.O.G c &.&.&.&.&.&.&.&.&.&.&.&.",
"&.&.&.&.&.&.&.&.&.&.&.&.#.#. . .#.o.F c c &.&.&.&.&.&.&.&.&.&.&.",
"&.&.&.&.&.&.&.&.&.&.&.&.#.$.X.....W B b n &.&.&.&.&.&.&.&.&.&.&.",
"&.&.&.&.&.&.&.&.&.&.&.&./ T C V N m k j &.&.&.&.&.&.&.&.&.&.&.&.",
"&.&.&.&.&.&.&.&.&.&.&.&.&.y &.&.&.&.&.w 3 &.&.&.&.&.&.&.&.&.&.&.",
"&.&.&.&.&.&.&.&.&.&.&.&.&.< &.&.&.&.&.1 2 &.&.&.&.&.&.&.&.&.&.&.",
"&.&.&.&.&.&.&.&.&.&.&.2 2 2 &.&.&.&.&.&.&.&.&.&.&.&.&.&.&.&.&.&.",
"&.&.&.&.&.&.&.&.&.&.&.&.&.&.&.&.&.&.&.&.&.&.&.&.&.&.&.&.&.&.&.&."
};
