/* XPM */
static char *P1655621298[] = {
/* columns rows colors chars-per-pixel */
"48 48 106 2 ",
"   c #171717",
".  c #1B1A1A",
"X  c #242525",
"o  c #3A2C23",
"O  c #36312F",
"+  c #353535",
"@  c #573A29",
"#  c #484848",
"$  c gray32",
"%  c #5A5B5B",
"&  c #75655C",
"*  c gray43",
"=  c #9F5E38",
"-  c #B2683E",
";  c #D5783E",
":  c #D67A42",
">  c #B9886B",
",  c #DA834E",
"<  c #D88756",
"1  c #D98A59",
"2  c #E58348",
"3  c #EF884B",
"4  c #F38A4D",
"5  c #FA8E4F",
"6  c #FF904F",
"7  c #F58F53",
"8  c #FF9252",
"9  c #F6945C",
"0  c #FD965B",
"q  c #FE995E",
"w  c #DB9265",
"e  c #DB9469",
"r  c #D69774",
"t  c #F69B66",
"y  c #FC9C64",
"u  c #F29E6E",
"i  c #FE9F68",
"p  c #DEA37F",
"a  c #EFA77E",
"s  c #FBA877",
"d  c #F3A478",
"f  c #F6AB7F",
"g  c #878787",
"h  c gray54",
"j  c #9F948D",
"k  c #979797",
"l  c #9F9F9F",
"z  c #A6A5A5",
"x  c #ACACAC",
"c  c gray70",
"v  c #BBBBBB",
"b  c #DCA584",
"n  c #DEA886",
"m  c #DFB49C",
"M  c #E0AC8B",
"N  c #F0B38E",
"B  c #F8B48D",
"V  c #E1B094",
"C  c #EFB89C",
"Z  c #F8BA96",
"A  c #F6BF9F",
"S  c #DDB9A5",
"D  c #E6C0A8",
"F  c #F4C3A7",
"G  c #F9C1A1",
"H  c #F2C5AB",
"J  c #E3CABB",
"K  c #EECEBD",
"L  c #F3CBB4",
"P  c #F1CFBC",
"I  c #F4D2BE",
"U  c gray77",
"Y  c #CDCDCD",
"T  c #DAC7C2",
"R  c #DFCBC3",
"E  c #DCD1CD",
"W  c #D5D5D5",
"Q  c #DFDFDF",
"!  c #E6CFC3",
"~  c #E6D7CE",
"^  c #EBD6C9",
"/  c #F0D7C9",
"(  c #F2D9CB",
")  c #E4DBD5",
"_  c #EBDBD3",
"`  c #E4DFDC",
"'  c #F2DED2",
"]  c #EBE2DD",
"[  c #CFD4E0",
"{  c #D1D6E2",
"}  c #D5D9E5",
"|  c #DADCE4",
" . c #D6DBE8",
".. c #DFE0E4",
"X. c #DDE1EB",
"o. c #E5E5E5",
"O. c #EBE5E1",
"+. c #ECE9E7",
"@. c #E2E5EB",
"#. c #E9E7E8",
"$. c #E7E8EB",
"%. c #EBEBEB",
"&. c #F2ECE8",
"*. c #EEEFF0",
"=. c #EFF0F1",
"-. c #F1F1F1",
/* pixels */
"%.%.o.o.o.$.%.=.$.o.Q o.$.=.=.o.o.o.=.%.%.=.o.%.=.=.=.%.%.o.o.%.=.=.-.=.%.o.%.%.%.%.*.%.o.o.%.%.",
"-.%.o.o.#.%.-.=.$.Q k z Q %.o.o.Q %.%.=.%.%.o.%.%.%.%.%.+.o.o.%.=.=.=.%.+.o.o.o.o.+.%.%.%.%.%.=.",
"&.%.$.o.%.=.-.#.@.o.g + c %.o.o.o.o.%.=.%.o.o.o.=.%.=.%.+.%.%.%.=.=.%.o.o.o.+.+.o.o.o.%.%.%.%.+.",
"=.*.o.o.o.#.%.o.X.X.[ > Y o.Q o.o.o.%.%.+.o.o.W v Q %.%.%.-.-.-.=.=.%.%.%.%.%.%.=.o.o.o.o.o.o.o.",
"o.o...] o.+.%.%.+.o.$.%.=.~ J %.o.o.%.=.=.Q z $ X # l =.-.-.-.-.%.o.%.o.o.%.%.%.%.%.%.%.%.%.%.%.",
"o.o.o.o.%.%.%.%.%.%.%.=.%.J M K =.o.+.=.=.x X   .   + U -.-.=.%.o.o.o.%.o.%.o.%.o.%.%.=.=.%.%.%.",
"$.%.o.%.%.%.%.=.=.%.+.=.=.^ w e ) %.o.%.%.v O . . .   * %.=.%.o.o.o.%.o.%.o.%.o.o.%.%.=.%.%.%.%.",
"=.=.%.%.%.%.%.=.%.%.+.%.-.-._ 1 e _ %.o.o.` w - @ .   h %.o.o.o.o.%.%.o.o.%.o.o.%.%.%.=.%.%.+.o.",
"=.=.%.%.%.%.%.*.+.o...%.%.=.=.D , w ~ %.o.Y < , = o % Y ..o.o.o.%.%.o.o.$.+.%.%.=.=.=.%.%.%.%.o.",
"#.#.%.%.o.$.%.%...o.o.o.%.%.%.%.n ; w ~ %.Q j & > z Q =.%.o.o.%.%.o.o.o.o.$.%.%.=.=.=.+.%.=.=.+.",
"Q o.o.o.o.+.+.o.o.%.%.o.+.%.=.%.] p : w D ) ..o.} V ~ *.%.%.=.=.+.o.o.o.o.o.o.o.%.%.%.$.%.%.%.o.",
"Q Q o.+.%.%.o.o.%.%.%.%.=.=.%.o.%.] p : : < b ] m : r ..*.%.+.o.o.o.Q o.o.o.o.o.%.%.%.+.%.%.%.%.",
"Q o.+.%.%.%.%.+.%.%.=.-.-.-.=.+.$.%.` b , ; 1 J t 5 , T $.%...o.o.o.o.o.o.+.%.+.+.%.=.%.+.o.%.=.",
"o.o.#.%.*.%.%.%.%.%.*.-.-.=.%.%.%.-.x > N p p R 9 8 2 S $.$.o.o.o.o.o.o.%.%.=.%.o.*.=.%.o.+.%.%.",
"o.+.$.*.%.%.%.%.%.%.*.%.=.%.%.=.-.-.Q a i H ] E 9 8 3 m X.%.o.o.o.%.+.%.=.-.=.%.Q =.=.+.o.%.%.%.",
"o.%.*.%.=.=.*.%.%.*.*.+.] o...%.%.=.-.+.F 0 N E u 8 4 S $.*.%.o.o.$.%.=.=.=.%.+.%.=.=.%.o.=.=.%.",
"%.=.=.%.%.=.=.=.*.%.o.o.o.o.] o.%.%.%.%.+.B 6 f f 8 7 J X.*.%.o.o.%.=.-.=.+.%.+.%.-.-.=.%.%.%.%.",
"=.=.=.%.%.=.=.=.*.%.o.o.o...%.o.] ....%.*.] s 6 0 8 s ] X.*.%.%.o.=.-.=.%.o.%.+.=.=.-.-.%.%.%.%.",
"-.-.=.%.o.%.%.*.%.%.*.o.o.o.%.%.o.o.o.%.%.*.~ u 6 6 Z %.$.X.%.%.=.=.=.=.o.o.o.%.-.-.-.-.%.=.*.=.",
"-.=.%.*.o.] o.%.%.*.*.+.o.o.%.=.=.$.%.=.=.%...] B s / %.@.$.=.%.%.%.=.%.o.Q o.%.=.=.=.%.%.=.=.%.",
"-.+.%.%.%.o.o.+.+.%.=.*.%.o.o.=.=.=.-.-.-.=.%.%.%.+.%.%.$.$.*.%.%.%.*.%.%.o.o.+.o.%.o.%.%.=.*.+.",
"%.%.+.o.%.%.%.%.%.%.+.=.%.%.o.o.%.=.-.-.-.=.%.%.%.%.*.*.$.X.$.$.o.*.=.=.%.%.*.%.o.] o.o.%.*.%.o.",
"o.o.o.%.%.=.-.-.*.%.+.*.*.%.%.] +.*.-.-.-.-.%.%.%.%.%.$.$.X.*.+.+.%.=.-.=.=.=.*.+.+.$.%.=.=.+.o.",
"o.o.o.+.%.=.-.=.%.%.%.o.$.%.$.o.] %.*.=.=.%.%.%.%.%.%.$.X.X.*.%.%.+.%.%.%.=.*.%.o.$.%.%.%.%.%.o.",
"o.o.%.+.$.%.*.*.%.%.o.o.o.o.o.o.o.o.+.%.$...X.@.%.%.*.*.X.X.@.*.%.%.o.o.%.%.%.o.o.o.%.=.%.*.%.o.",
"*.%.%.%.o.%.%.o.+.%.o...] ..o.$.o.o.o.o.o.o.X.} } X.X.X.X.X.$.$.o.o.%.%.o.%.+.o.o.o.o.=.*.=.%.o.",
"-.-.=.+.o.+.o.o.o.$.$.o...o.$.o.o.o.+.$.o.%.%.@. .} } }  .X.$.$.Q %.o.%.%.+.o.o.o.=.=.-.=.=.%.o.",
"-.=.%.o.o.o.o.o.o.+.%.o.%.$.%.%.%.%.%.=.%.%.%.%.%.X.X.} [ | %.#.%.%.%.o.Q %.%.+.%.%.-.-.%.%.o.o.",
"*.%.+.o.%.o.%.+.#.%.%.+.#.%.=.-.=.%.*.=.%.%.%.%.%.%.%.X. .| $.%.=.%.%.o.Q +.%.=.+.%.=.=.%.o.o.o.",
"%.o.%.*.%.%.%.*.-.%.#.+.=.-.-.=.%.%.%.%.=.%.%.*.%.=.%.%. .| %.=.%.%.%.%.o.o.=.%.o.%.%.%.o.o.o.o.",
"+.o.%.*.+.%.%.-.%.%.#.o.%.%.*.%.%.o.o.o.%.%.%.%.%.%.%.%.X.| %.%.%.%.%.+.=.=.=.=.=.%.%.%.o.Q o.o.",
"%.$.o.o.$.%.*.-.=.#.o.o.%.%.%.%.+.o.o.o.%.%.%.X.%.%.%.$. ...#.o.o.%.%.%.=.%.+.+.=.=.=.%.o.o.o.o.",
"%.o.o.o.o.+.%.=.%.%.o.o.o.%.%.%.+.o.o.+.%.%.%.X.%.%.*.%.} ..$.o.o.$.%.%.=.%.%.%.%.%.%.%.%.%.o.o.",
"o.o.o.%.%.%.o.o.%.%.o.o.o.%.=.%.=.*.%.%.%.%.*...%.%.%.X.[ ..o.%.*.o.%.%.%.%.+.%.%.+.o.%.%.=.-.%.",
"o.o.o.=.=.%.o.o.+.%.%.o.+.%.=.%.%.%.%.%.%.%.%.X.%.%.%.X.{ { ..$.%.%.$.+.%.o.o.%.*.%.%.%.=.-.-.-.",
"o.o.+.*.%.%.o.o.%.%.*.o.%.%.=.%.%.*.*.%.%.%...%.%.%.*.X.{ { ..$.%.%.%.$.%.o.o.+.%.-.*.%.*.-.-.%.",
"%.o.o.o.o.%.%.%.=.%.+.o.%.=.%.o.%.%.%.%.%.%.X.%.%.%.*.X.[ [ ..*.-.-.*.%.%.%.+.+.%.%.%.%.%.*.*.o.",
"o.%.o.o.o.o.%.%.=.=.+.%.%.=.%.%.%.%.*.%.%.*...%.*.%.%.X.{ [ { =.-.=.*.%.%.*.*.%.o.%.%.%.%.*.%.] ",
"%.%.%.+.$.o.o.$.=.=.%.=.=.%.%.=.%.$.%.%.%.%.%.%.%.%.%.X.[ [ { *.=.%.%.%.*.-.*.=.%.%.%.%.%.%.%.o.",
"%.%.*.%.+.o.o.o.%.=.=.=.%.%.%.%.o.%.%.%.%.*.%.%.%.%.X.X.[ [ { %.%.+.o.%.*.%.%.%.%.%.%.%.%.%.%.o.",
"o.=.=.%.o.o.o.+.%.=.=.%.%.%.+.o.o.o.=.=.%.$.X.X.X.X.} { [ [ } o.o.o.+.o.$.o.%.o.o.+.%.%.%.%.%.%.",
"%.%.o.%.o.%.%.=.%.+.%.=.%.%.%.o.o.%.$.....} { ..{ { [ { W T ! +.%.%.%.%.o...] +.%.%.%.-.%.o.o.o.",
"=.%.%.o.o.*.-.-.%.o.%.%.%.+.%.=.%.o.+.C d K %.%.%...o.o.D q y P %.o.%.=.%.o.o.%.*.=.%.%.%.o.o.o.",
"=.=.%.o.o.%.-.-.+.o.%.%.o.%.%.=.%.%.+.s 7 I *.%.%.%.%.%.^ q 8 Z %.%.%.*.%.o.+.=.-.-.-.%.%.%.%.%.",
"%.=.%.o.o.=.-.-.%.o.o.o.o.o.*.=.%._ H q 8 K %.$.%.%.%.%.A 0 G &.*.+.*.*.+.%.%.=.=.%.%.%.%.%.%.-.",
"=.=.*.] %.-.-.-.%.%.o.%.%.o.+.O.B y 0 0 9 L %.$.o.%.=./ y A &.=.%.o.%.%.+.=.=.%.%.+.$.%.%.o.-.-.",
"=.=.%.o.%.-.-.=.%.o.+.%.%.%.o.%.' I ( ' ( ] $.o.o.+.%.I L +.%.%.%.%.%.%.%.=.=.%.%.o...$.%.%.%.=.",
"%.=.=.o.*.-.-.%.%.%.%.=.=.%.%.+.$.-.-.-.%.o.] o.$.o.+.*.=.o.Q o.o.o.+.%.=.=.=.=.=...] o.%.%.%.%."
};
