/* XPM */
static char *S1655621299[] = {
/* columns rows colors chars-per-pixel */
"48 48 191 2 ",
"   c #171A1C",
".  c #211011",
"X  c #341B1C",
"o  c #232527",
"O  c #383B3B",
"+  c #560C0F",
"@  c #580C0F",
"#  c #540D10",
"$  c #5A0F12",
"%  c #4C1719",
"&  c #551215",
"*  c #5C1114",
"=  c #5C1619",
"-  c #57191B",
";  c #621216",
":  c #641619",
">  c #6C191C",
",  c #741518",
"<  c #5A1E20",
"1  c #6B1E21",
"2  c #7F1E22",
"3  c #5D2225",
"4  c #54292C",
"5  c #583739",
"6  c #6A2527",
"7  c #6E3234",
"8  c #753E3F",
"9  c #703F41",
"0  c #454A4A",
"q  c #4C4C4D",
"w  c #5F494A",
"e  c #6A4748",
"r  c #775657",
"t  c #5F6161",
"y  c #777979",
"u  c #941C1F",
"i  c #A5181E",
"p  c #851B21",
"a  c #A01C22",
"s  c #BB1D22",
"d  c #9B2224",
"f  c #99383C",
"g  c #B1373A",
"h  c #C4191F",
"j  c #DA1C1F",
"k  c #ED1D1F",
"l  c #C81D23",
"z  c #D61E25",
"x  c #DB1E24",
"c  c #E41F22",
"v  c #EB1E21",
"b  c #DD2026",
"n  c #D7262D",
"m  c #DD2A30",
"M  c #DB363C",
"N  c #E52024",
"B  c #EC2123",
"V  c #EA272A",
"C  c #EC2A2C",
"Z  c #E22E32",
"A  c #EC2F31",
"S  c #E73235",
"D  c #EC393B",
"F  c #874F51",
"G  c #964E51",
"H  c #935759",
"J  c #95585B",
"K  c #AF4B4D",
"L  c #AA645F",
"P  c #876B6C",
"I  c #946565",
"U  c #8F7D7D",
"Y  c #977576",
"T  c #A96F72",
"R  c #A0797A",
"E  c #B77B7C",
"W  c #C24246",
"Q  c #D6494B",
"!  c #CF5B5F",
"~  c #DB5255",
"^  c #E8484B",
"/  c #E84E51",
"(  c #E6575A",
")  c #D35F63",
"_  c #DE5F61",
"`  c #D96A6E",
"'  c #CB6F70",
"]  c #C87672",
"[  c #DF7577",
"{  c #DD797B",
"}  c #E56567",
"|  c #E96768",
" . c #E96F70",
".. c #E77678",
"X. c #E47B7D",
"o. c #A17F80",
"O. c #DE7E80",
"+. c #E37F81",
"@. c #888888",
"#. c #9B8788",
"$. c #8F9090",
"%. c #969797",
"&. c #A68687",
"*. c #AB8C8D",
"=. c #BA8788",
"-. c #A89798",
";. c #A39B9B",
":. c #B69496",
">. c #B49FA0",
",. c #AAABAC",
"<. c #B9A6A7",
"1. c #B4B5B6",
"2. c #BCB3B3",
"3. c #CA8A89",
"4. c #DF8689",
"5. c #D88889",
"6. c #D4908E",
"7. c #C39394",
"8. c #CE9597",
"9. c #C79E9F",
"0. c #D79492",
"q. c #DC9593",
"w. c #DE9897",
"e. c #DD9B9C",
"r. c #E38284",
"t. c #EB8383",
"y. c #E38B8C",
"u. c #EB8B8C",
"i. c #E39495",
"p. c #EB9796",
"a. c #E49798",
"s. c #E49B9C",
"d. c #EB9D9E",
"f. c #F69192",
"g. c #F39997",
"h. c #F39F9E",
"j. c #F99E9A",
"k. c #D7A49F",
"l. c #C09FA0",
"z. c #E59FA0",
"x. c #C6A4A6",
"c. c #CEAAAC",
"v. c #DFA5A7",
"b. c #DBABAA",
"n. c #DDB0AE",
"m. c #C8B5B6",
"M. c #DEB4B6",
"N. c #D6BABB",
"B. c #E6A4A2",
"V. c #ECA3A2",
"C. c #E4AAAC",
"Z. c #EBACAB",
"A. c #F9A5A3",
"S. c #F7A8A7",
"D. c #F5ABAA",
"F. c #F2B1AF",
"G. c #E3B3B4",
"H. c #EBB6B6",
"J. c #E3BBBC",
"K. c #EDBBBB",
"L. c #F3B3B3",
"P. c #F9B1B0",
"I. c #F4BDBB",
"U. c #CDC9C8",
"Y. c #D2C4C4",
"T. c #D7CACA",
"R. c #D8D5D5",
"E. c #DDDCDC",
"W. c #E5C2C3",
"Q. c #ECC3C3",
"!. c #E3C8C7",
"~. c #E6CCCC",
"^. c #EBCCCC",
"/. c #F0CFCF",
"(. c #E5D3D4",
"). c #EDD5D5",
"_. c #E4DCDD",
"`. c #ECDBDB",
"'. c #F1D1D1",
"]. c #F1DEDE",
"[. c #E7DFE0",
"{. c #DEE1E1",
"}. c #E5E5E5",
"|. c #EBE4E4",
" X c #EBE7E8",
".X c #E6E8E8",
"XX c #EBEBEB",
"oX c #F3E6E6",
"OX c #F2EDED",
"+X c #EEF1F1",
"@X c #F1F1F1",
/* pixels */
"XXXX}.}.}..XXXOXXX}.E.}. XXX+X}.}.}.XX+XOXXX.XXX@XC.x.1.1.8.J.+X@X@X@X@XXX}..XXXXXOX+XXX.X}.XXOX",
"@XXX}.}..XXX@XXX.X}.}.}..XXX}.}.}.}.XXXXXX.X.XXXT.W X o o 6 ! E.+X+X+XXX}.}.}.}.}..XXXXXXXXXXXXX",
"OXXX.X}.XX@X@XXX}.}.}.}.}.}.}.}.}. X+XXXXX.X}.E.J l X     - l *.OXOXXX.X}.}..X}.}.}.}..XXXXXXXXX",
"+XXX.X}.}..XXX}.}.}.}.}.}.}.}.}.}.}.XXXX.X{.}.1.6 x K w r Q h e E.@XXX}.XXOXOX+XOXXX}.}.}.}.}.{.",
"}.}.}.}.}..XXXXX X.X}.XXXXXX}.XX}.}.XX@X+X X.Xy 8 | f.D.D.t.` 5 ,.XX}.XX.XXX.XXX.X+X.XXXXX+XXXXX",
"}.}.}.}.XXXX.XOXXXXXXX+XXXXXXXoX[.}.XXXXXX.X|.U I =.I E 3.I 3.r <.}..X X.X.XXX X}..X+X+XXXXX+XOX",
".X.X.X.XXXXXXX@X+XXX X+X@X@X+XZ. .oX XXX}.|.[.B.0.0.L ] L L q.5.H.XX.X|.|..X.X.X}.XXXXXXOXXX+XXX",
"@XOXXXXXXXXXXXOXXXXX X`.].@X+Xg.+.'..XQ.d.[..XI.j.V.6.g.g.6.V.g./.XX.X.X X.X}. XXXXXOXOX+X}.}.{.",
"@XOXXXXXXXXXXXOX}.}.}.(.X.^.XX].`.oX Xe.b.XXXX].S.S.S.A.A.S.A.P.|.XX X X.X.X.X+X@X@XOXXXXXXXXX}.",
".XXX.XXX}.XXXXXX}.}.}..XG.~.+XXX~.+X+X!.W.XXXXXXN.V.k.0.a.s.V.(.+X.X}.{. X.X.XXX+XOX+XXXXX+X+X}.",
"_.}.}.}.}..XXX.X}..X}..XG.^.+X XM. X+X(.B. X}.XXoXP.0.H L B.I.XXXX}.}.{.}. X}.}..XOXXX.X X+XXX X",
"E.}.}..XXXXX}.}..XXX+XoXs.`.XX}.v.|.+X Xa.Q.+X X X'.F.j.A.P.). X X{.{.}.}.}.}.}..X+XXXXX.X XXXXX",
"}.}..XXXOXXXXX.XXXOX+X^.i.OX@X Xa.`.XXXXW.+.OX X}.{.Z.a.i.b.{..X.X}.}.}. X.XXX.X XXX+XXX X.X.X+X",
"}.}..XXXXXXXXXXX+XXX+XV.a.@XXXXXy.^.+X+XW.} |.[.n.Y.!.B.k.Y.m.e.(.XX}.}..X+XOXXX}.+XOXXX.X.XXX+X",
"}.}..XXXXXXXXXXXXXXX@XI._ W.|. X .V._.C._ d.(.} m 6.}.@.;.E.` b / L..XXXOX@XOXXX{.+X+X X.X XXXXX",
"}..XOX+X@X@XXXXXXXXXXX.Xz.( _ _ Z m ( } Z..Xu.c b M 7.O q 5.n j k ^ ).@X@X@XXXXX.X+X@XXX XXXXXXX",
"XX+X@XXXXX@X+XOX+X+X X}.}.(.J.d.Q ( Q.oXXXXX| k N x n 4 4 n z b B v p.@XOXXXXX XXX@X@X+XXXXXXXXX",
"OX@X@X.X.XXX@X@XOXXX}.{.}.}..X[.~ Q (.XXXX|.^ k c n x a p z z B B v ^ ].XX X XXX+X@X@X@X+XXXXXXX",
"@X@XOXXXXX.XOXXX.X+X+X}.{..XXXXXs.{ }. X+X).D k B N x l s x N B N B B h..X}.}. X@X@X@X@X+XXX+X+X",
"@X@X+XXX.X|..XXX X+X@X.X X}..X@XQ.4.XXXX+X^.A c v B B z l B B B b v v ( _.}.}..X@XXX+XXXXX@XOXXX",
"@XXXXXXX.X.X.X.X.X+XOX+X X X}.+X^.O.OX@X@XK.V N c B B c x B B V ) m v C Z. XXX.X X X.X XXX+XOXXX",
".XXX.X}.XXXXXX XXXXX X+X+X.X.X}.^.X.OXoXQ.` N B z B B N x B k m k.M c v u.+XXX.X}..X}..XXXXX X}.",
"}. X.X XXX@X@X@X+XXX.X+X+XXX.X[.K.g.I.| C B B v x v B N N B B S { V B C L.@X+XXX.X.X XXX+XXXXX}.",
"{..X X.XXXOX@X@XXX.X X XXX.X X}.L.j.V.A k k v V m B B N N B B S D B k / |.@X+XXX.X XXXXXXX+XXX}.",
"}.|.XX X XXX@XXXXXXX.X}.}. X}.}.Q.r.Z.( ( } ..d.} k B B B B B V C k Z ^ W.XXXX X}.}.XXXXXX@XXX}.",
"XXXXXX.X.XXXXX.X X X.X{.{.}.}..X}.{ W.}.[.{.XXXX .v B B B B B D ..S y.n.J.XX X.X}.}.XX+XOX@XXX}.",
"@X@X@X.X.X}..X[..X.X.X}.}.{. X}.}.r.J.+X X.X}.}.' j k V V B N g V.H.^.(..X.X}.}.}.XX@X@X@X+XXX}.",
"@X@XXX.X.X.X}.}..X.X X X}. XXX+XXXy.G.+XXX X}..XY , u a d u , 6 y.).~.(..X.XXX.XXXXX@X@XOX.X}.}.",
"XXXX.X.X X.X XXX XXXXX.XXXXX+X@X+Xa.C.@X+XXX X XR * * % & & * 7 n.oXJ.[.}..XXX+XXXOXOX+X.X.X}.}.",
"XX.XXXOXXXXXXXOX+X+X.X XXX@X@X+X+XB.e.+XXX+X+X+Xo.* * = , = @ F XX(.G.XX}.XXXXXX.X.X.XXX|..X}.}.",
".X.XXXXXXXXXOX@X+X X}..XXX+XXXXXXXC.6.XX XXX+XOX&.; * 9 G * ; H !.w._.OXXXXXXX+XXXXXOXXX}.{.}.}.",
"XX.X.X.X}..X+X@XXX X}..X XXXXXXXXXG.4. X XXXXXXX*.; @ P -.* * f 4.~.XXOX@XXXXX+X+XOX+XXX}.}.{.}.",
"XX|.}.}.}..XXXOX+X.X}.XX.X.XXXXXXX!.O.}. XXX XXX:.; & U <.= ; T }.XXXXXX+XXX XXXXXXXXXXX X.X X.X",
"}.}.}.XXXXXX}..XXXXX{.}.}.XXOXXXXX'.{ |.XXXX.X+X:.= & -.2.- ; =.XX.XXXXX+X X.XXXXX X}. XXX@XOX+X",
"}.}.}.@XOXXX}.}..XXXXX}..XXX@XXXXX[...[.XXXXXX@Xl.; - <.2.3 ; 7.XXXX X.XXX.X.XXX+XXXXXXX+X@X@X+X",
" X}..XXXXXXX}.}.XXXXOX}.XXXX@XXXXX].[ _.XX+XXX@Xx.: - 1.m.< : 9.+XXXXXXX X}.}..X+X+X+XXX+XOX+X+X",
"XX}.}..X}.XXXXXXOXXX.X.XXX+XXX.XXXXXX.(.XXXXXX+Xc.> * #.U.4 $ E @X@X+XXXXX X XXX.XXXXX.X.XOX+X.X",
".XXX}.}.}.}.XXOX+X+XXXXXOXOXXXXX.XXX+.^.@XOX+X+Xc.> @ U {.5 & J @X+X+XXXXX@X@XXXXXXXXX XXXOX+X{.",
"XXXXXXXX}.}.}.XX+X+X+XOX+XXXXXXXXX Xr.!.@X@XXX@Xm.> @ &. Xe # J XXXXXXXX+X@XOXXXXXXX.XXXXX+X X{.",
".XXXOXXXXX}.{.}.+XOXOX+XXXXX.XOX.X.Xu.G.+X+XXX+XN.> = >.XXr # J  X X.X.XXXXX+XXXXXXX+XOXXXXX.X X",
".XOX@XXX}.}.}..XXX+X@XOXXXXXXX}.}..Xa.v.XX.XXX+XN.1 - c. XP @ I }..X X.X}.}. X.X X}. XXXXX X.XXX",
"XXXX.X X.XXXXX@XXX.XXXOXXX.X.XXX.XXXB.z.+XXX@XXXN.1 6 Y..XP @ Y XX XXX.X}.}.}. X X+X+XXX.X}.}. X",
"OXXX.X.X}.XX@X@X.X.X XXXXX.XXXXXXXXXZ.q.+X+XXX+XY.1 7 R.XXY @ o.OX.XXX+X.X}..XXX+X@X+XXX.X X}..X",
"+X+XXX}.}.OX@X@X.X.XXXXX.XXXXX@XXXXXK.y.+X+XXX+XN.2 8 {.@X#.+ *.+XXXXXOXXX.X.X+XOX@X+X+XXXXX.XXX",
"XX+XXX}..XOX@X@XXXXX.X.X}..XXXOXXXXXW.O.XX.XXXXXk.i f (.@X=.i k.+X}.XX@XXX.XOX@X+XOXXXXXXXXXOX@X",
"OX+XXX}.XX@X@X@XXX}.}..X.X XXXOX+XXX^.{  XXXR.,.0 . 7 _.@X<.% ;.+X.XXXXXXXXXXXXX.X.X.X.XXX.X@X@X",
"XX@XOX}.XX@X@XOXXX}..XXX+XXX.XXXXX+X].r. X{.$.t y @.%.XXOXU.O 0 R..XXXOXXX+X+XXXXX X}. X.X.XXXOX",
"XX+X+X}.+X@X@XOX.X.XXX+XOXOXXX}..X+XOX). X}.E.}..X XXXXXXX}.,.O $.XX.XXX+XOX@X@XXX}.|..X.XXX+XXX"
};
